<?xml version='1.0' encoding='UTF-8'?>
<svg x="0px" y="0px" viewBox="0 0 32 32" version="1.1" xmlns="http://www.w3.org/2000/svg" xmlns:xlink="http://www.w3.org/1999/xlink" xml:space="preserve" id="Layer_1" style="enable-background:new 0 0 32 32">
  <style type="text/css">
	.Red{fill:#D11C1C;}
	.Yellow{fill:#FFB115;}
	.Blue{fill:#1177D7;}
	.Green{fill:#039C23;}
	.Black{fill:#727272;}
	.White{fill:#FFFFFF;}
	.st0{opacity:0.5;}
	.st1{opacity:0.75;}
	.st2{opacity:0.35;}
	.st3{opacity:0.65;}
</style>
  <g id="Bar3DStacked">
    <g class="st1">
      <path d="M8,22H2v-4h6V22z M18,12h-6v4h6V12z M28,6h-6v6h6V6z" class="Blue" />
    </g>
    <g class="st1">
      <path d="M8,24H2v-2h6V24z M18,16h-6v6h6V16z M28,12h-6v6h6V12z" class="Yellow" />
    </g>
    <g class="st1">
      <path d="M8,28H2v-4h6V28z M18,22h-6v6h6V22z M28,18h-6v10h6V18z" class="Red" />
    </g>
    <g class="st0">
      <path d="M10,16l-2,2H2l2-2H10z M14,10l-2,2h6l2-2H14z M24,4l-2,2h6l2-2H24z" class="Blue" />
    </g>
    <path d="M10,26l-2,2v-4l2-2V26z M20,20l-2,2v6l2-2V20z M30,16l-2,2v10l2-2V16z" class="Red" />
    <path d="M10,22l-2,2v-2l2-2V22z M20,14l-2,2v6l2-2V14z M30,10l-2,2v6l2-2V10z" class="Yellow" />
    <path d="M10,20l-2,2v-4l2-2V20z M20,10l-2,2v4l2-2V10z M30,4l-2,2v6l2-2V4z" class="Blue" />
  </g>
</svg>