<?xml version='1.0' encoding='UTF-8'?>
<svg x="0px" y="0px" viewBox="0 0 32 32" version="1.1" xmlns="http://www.w3.org/2000/svg" xmlns:xlink="http://www.w3.org/1999/xlink" xml:space="preserve" id="Layer_1" style="enable-background:new 0 0 32 32">
  <style type="text/css">
	.Red{fill:#D11C1C;}
	.Black{fill:#727272;}
	.Blue{fill:#1177D7;}
	.Green{fill:#039C23;}
	.Yellow{fill:#FFB115;}
	.White{fill:#FFFFFF;}
	.st0{opacity:0.5;}
	.st1{opacity:0.75;}
	.st2{opacity:0.25;}
</style>
  <g id="NewAppointment_2_">
    <path d="M0,5v24c0,0.6,0.4,1,1,1h28c0.6,0,1-0.4,1-1V5c0-0.6-0.4-1-1-1H1C0.4,4,0,4.4,0,5z M28,28H2V8h26V28z" class="Black" />
    <rect x="16" y="16" width="4" height="4" rx="0" ry="0" class="Red" />
    <g class="st0">
      <path d="M8,26H4v-4h4V26z M14,22h-4v4h4V22z M20,22h-4v4h4V22z M26,22h-4v4h4V22z M20,10h-4v4h4V10z M26,10h-4v4h4    V10z M26,16h-4v4h4V16z M14,16h-4v4h4V16z M8,16H4v4h4V16z M14,10h-4v4h4V10z M8,10H4v4h4V10z" class="Black" />
    </g>
  </g>
</svg>