<?xml version='1.0' encoding='UTF-8'?>
<svg x="0px" y="0px" viewBox="0 0 32 32" version="1.1" xmlns="http://www.w3.org/2000/svg" xmlns:xlink="http://www.w3.org/1999/xlink" xml:space="preserve" id="Layer_1" style="enable-background:new 0 0 32 32">
  <style type="text/css">
	.Red{fill:#D11C1C;}
	.Black{fill:#727272;}
	.Blue{fill:#1177D7;}
	.Green{fill:#039C23;}
	.Yellow{fill:#FFB115;}
	.White{fill:#FFFFFF;}
	.st0{opacity:0.5;}
	.st1{opacity:0.75;}
	.st2{opacity:0.25;}
</style>
  <g id="TimeScales">
    <g class="st0">
      <path d="M20,14.8V14h-4v4h0C17,16.6,18.4,15.5,20,14.8z" class="Black" />
      <rect x="16" y="8" width="4" height="4" rx="0" ry="0" class="Black" />
      <rect x="10" y="8" width="4" height="4" rx="0" ry="0" class="Black" />
      <rect x="22" y="8" width="4" height="4" rx="0" ry="0" class="Black" />
      <rect x="4" y="8" width="4" height="4" rx="0" ry="0" class="Black" />
      <rect x="10" y="20" width="4" height="4" rx="0" ry="0" class="Black" />
      <rect x="4" y="20" width="4" height="4" rx="0" ry="0" class="Black" />
      <rect x="4" y="14" width="4" height="4" rx="0" ry="0" class="Black" />
    </g>
    <path d="M14,18h-4v-4h4V18z M32,24c0,4.4-3.6,8-8,8s-8-3.6-8-8s3.6-8,8-8S32,19.6,32,24z M30,24c0-3.3-2.7-6-6-6   s-6,2.7-6,6s2.7,6,6,6S30,27.3,30,24z" class="Red" />
    <path d="M14.8,28H1c-0.6,0-1-0.4-1-1V3c0-0.6,0.4-1,1-1h28c0.6,0,1,0.4,1,1v13c-0.6-0.5-1.3-0.9-2-1.2V6H2v20h12.2   C14.3,26.7,14.6,27.4,14.8,28z M28,24v2h-4h-2v-2v-4h2v4H28z" class="Black" />
  </g>
</svg>